0
SECTION
2
HEADER
9
$INSUNITS
70
4
9
$ACADVER
1
AC1014
9
$HANDSEED
5
FFFF
0
ENDSEC
0
SECTION
2
TABLES
0
TABLE
2
VPORT
5
8
100
AcDbSymbolTable
0
ENDTAB
0
TABLE
2
LTYPE
5
5
100
AcDbSymbolTable
0
LTYPE
5
14
100
AcDbSymbolTableRecord
100
AcDbLinetypeTableRecord
2
BYBLOCK
70
0
0
LTYPE
5
15
100
AcDbSymbolTableRecord
100
AcDbLinetypeTableRecord
2
BYLAYER
70
0
0
ENDTAB
0
TABLE
2
LAYER
5
2
100
AcDbSymbolTable
70
2
0
LAYER
5
50
100
AcDbSymbolTableRecord
100
AcDbLayerTableRecord
2
0
70
0
6
CONTINUOUS
0
ENDTAB
0
TABLE
2
STYLE
5
3
100
AcDbSymbolTable
70
1
0
STYLE
5
11
100
AcDbSymbolTableRecord
100
AcDbTextStyleTableRecord
2
STANDARD
70
0
0
ENDTAB
0
TABLE
2
VIEW
5
6
100
AcDbSymbolTable
70
0
0
ENDTAB
0
TABLE
2
UCS
5
7
100
AcDbSymbolTable
70
0
0
ENDTAB
0
TABLE
2
APPID
5
9
100
AcDbSymbolTable
70
2
0
APPID
5
12
100
AcDbSymbolTableRecord
100
AcDbRegAppTableRecord
2
ACAD
70
0
0
ENDTAB
0
TABLE
2
DIMSTYLE
5
A
100
AcDbSymbolTable
70
1
0
ENDTAB
0
TABLE
2
BLOCK_RECORD
5
1
100
AcDbSymbolTable
70
1
0
BLOCK_RECORD
5
1F
100
AcDbSymbolTableRecord
100
AcDbBlockTableRecord
2
*MODEL_SPACE
0
BLOCK_RECORD
5
1B
100
AcDbSymbolTableRecord
100
AcDbBlockTableRecord
2
*PAPER_SPACE
0
ENDTAB
0
ENDSEC
0
SECTION
2
BLOCKS
0
BLOCK
5
20
100
AcDbEntity
100
AcDbBlockBegin
2
*MODEL_SPACE
0
ENDBLK
5
21
100
AcDbEntity
100
AcDbBlockEnd
0
BLOCK
5
1C
100
AcDbEntity
100
AcDbBlockBegin
2
*PAPER_SPACE
0
ENDBLK
5
1D
100
AcDbEntity
100
AcDbBlockEnd
0
ENDSEC
0
SECTION
2
ENTITIES
0
LWPOLYLINE
5
100
100
AcDbEntity
8
0
100
AcDbPolyline
90
64
70
1
43
0.0
10
13.636363636363704
20
96.900000000000318
10
13.636363636363704
20
100
10
22.727272727272801
20
99.999999999999716
10
22.727272727272801
20
96.900000000000318
10
31.818181818181802
20
96.900000000000318
10
31.818181818181802
20
100
10
40.909090909090899
20
100
10
40.909090909090892
20
96.900000000000318
10
52.749999999999993
20
96.900000000000333
10
52.75
20
78.857142857143117
10
49.649999999999999
20
78.857142857143117
10
49.649999999999999
20
69.114285714285899
10
52.75
20
69.114285714285899
10
52.75
20
56.371428571428801
10
49.649999999999999
20
56.371428571428808
10
49.65000000000002
20
43.628571428571597
10
52.75
20
43.628571428571597
10
52.75
20
30.885714285714407
10
49.649999999999999
20
30.885714285714407
10
49.65000000000002
20
18.142857142857199
10
52.750000000000099
20
18.142857142857199
10
52.750000000000099
20
3.1000000000000201
10
40.909090909090892
20
3.1000000000000059
10
40.909090909090899
20
1.1760595055203176e-15
10
31.818181818181802
20
3.3306690738754696e-15
10
31.818181818181802
20
3.1000000000000028
10
22.727272727272801
20
3.0999999999999996
10
22.727272727272787
20
1.1760595055203176e-15
10
13.636363636363704
20
3.3306690738754696e-15
10
13.636363636363704
20
3.1000000000000028
10
4.5454545454545423
20
3.1000000000000028
10
4.5454545454545396
20
-5.5866397045648951e-16
10
-4.5454545454545396
20
0
10
-4.5454545454545459
20
3.1000000000000028
10
-13.636363636363704
20
3.1000000000000028
10
-13.636363636363704
20
1.9740323044696341e-15
10
-22.727272727272801
20
0
10
-22.727272727272798
20
3.0999999999999996
10
-31.818181818181802
20
3.1000000000000028
10
-31.818181818181802
20
1.9740323044696443e-15
10
-40.909090909090899
20
5.5511151231257827e-16
10
-40.909090909090899
20
3.1000000000000059
10
-52.750000000000099
20
3.1000000000000205
10
-52.750000000000099
20
18.142857142857199
10
-49.65000000000002
20
18.142857142857199
10
-49.649999999999999
20
30.885714285714407
10
-52.75
20
30.885714285714407
10
-52.75
20
43.628571428571597
10
-49.65000000000002
20
43.628571428571597
10
-49.649999999999999
20
56.371428571428808
10
-52.75
20
56.371428571428801
10
-52.75
20
69.114285714285899
10
-49.649999999999999
20
69.114285714285899
10
-49.649999999999999
20
78.857142857143117
10
-52.75
20
78.857142857143117
10
-52.75
20
96.900000000000333
10
-40.909090909090899
20
96.900000000000318
10
-40.909090909090899
20
100
10
-31.818181818181802
20
100
10
-31.818181818181802
20
96.900000000000318
10
-22.727272727272801
20
96.900000000000318
10
-22.727272727272801
20
99.999999999999929
10
-13.636363636363704
20
100
10
-13.636363636363704
20
96.900000000000318
0
CIRCLE
5
101
100
AcDbEntity
8
0
100
AcDbCircle
10
26.940768363207699
20
57.470384181602832
30
0
40
1.7779999999999916
0
CIRCLE
5
102
100
AcDbEntity
8
0
100
AcDbCircle
10
13.4703841816044
20
17.059231636792624
30
0
40
1.7779999999999896
0
CIRCLE
5
103
100
AcDbEntity
8
0
100
AcDbCircle
10
26.940768363207503
20
30.529615818396024
30
0
40
1.7779999999999916
0
CIRCLE
5
104
100
AcDbEntity
8
0
100
AcDbCircle
10
13.4703841816044
20
70.940768363206729
30
0
40
1.7779999999999896
0
CIRCLE
5
105
100
AcDbEntity
8
0
100
AcDbCircle
10
-26.940768363207699
20
57.470384181602832
30
0
40
1.7779999999999916
0
CIRCLE
5
106
100
AcDbEntity
8
0
100
AcDbCircle
10
-13.4703841816044
20
17.059231636792624
30
0
40
1.7779999999999896
0
CIRCLE
5
107
100
AcDbEntity
8
0
100
AcDbCircle
10
-26.940768363207503
20
30.529615818396024
30
0
40
1.7779999999999916
0
CIRCLE
5
108
100
AcDbEntity
8
0
100
AcDbCircle
10
-13.4703841816044
20
70.940768363206729
30
0
40
1.7779999999999896
0
LWPOLYLINE
5
109
100
AcDbEntity
8
0
100
AcDbPolyline
90
24
70
1
43
0.0
10
-57.850000000000065
20
69.114285714285899
10
-57.850000000000065
20
56.371428571428801
10
-54.750000000000021
20
56.371428571428801
10
-54.749999999999908
20
43.628571428571597
10
-57.850000000000065
20
43.628571428571597
10
-57.850000000000065
20
30.885714285714407
10
-54.749999999999972
20
30.885714285714407
10
-54.749999999999943
20
18.142857142857196
10
-57.850000000000065
20
18.142857142857199
10
-57.850000000000065
20
3.1000000000000068
10
-54.749999999999972
20
3.1000000000000005
10
-54.750000000000028
20
-39.999999999999702
10
-89.750000000000071
20
-39.999999999999702
10
-89.749999999999872
20
100
10
-78.083333333333272
20
100
10
-78.083333333333286
20
96.900000000000318
10
-66.416666666666671
20
96.900000000000318
10
-66.416666666666671
20
100
10
-54.749999999999886
20
99.999999999999943
10
-54.749999999999829
20
96.900000000000333
10
-57.850000000000065
20
96.900000000000333
10
-57.850000000000065
20
78.857142857143117
10
-54.749999999999957
20
78.857142857143117
10
-54.749999999999872
20
69.114285714285899
0
CIRCLE
5
110
100
AcDbEntity
8
0
100
AcDbCircle
10
-65.514807909203427
20
84.411152544810818
30
0
40
1.7779999999999916
0
CIRCLE
5
111
100
AcDbEntity
8
0
100
AcDbCircle
10
-78.985192090806919
20
70.940768363207397
30
0
40
1.7779999999999916
0
LWPOLYLINE
5
112
100
AcDbEntity
8
0
100
AcDbPolyline
90
4
70
1
43
0.0
10
-66.416666666666572
20
2.1094237467877974e-14
10
-66.416666666666558
20
3.1000000000000205
10
-78.083333333333258
20
3.1000000000000383
10
-78.083333333333272
20
3.0491829014095483e-14
0
CIRCLE
5
113
100
AcDbEntity
8
0
100
AcDbCircle
10
-85.249999999999972
20
-9.4999999999996803
30
0
40
1.69999999999999
0
CIRCLE
5
114
100
AcDbEntity
8
0
100
AcDbCircle
10
-85.250000000000057
20
-35.499999999999709
30
0
40
1.69999999999999
0
CIRCLE
5
115
100
AcDbEntity
8
0
100
AcDbCircle
10
-59.250000000000028
20
-35.499999999999709
30
0
40
1.69999999999999
0
CIRCLE
5
116
100
AcDbEntity
8
0
100
AcDbCircle
10
-59.249999999999986
20
-9.4999999999997193
30
0
40
1.69999999999999
0
CIRCLE
5
117
100
AcDbEntity
8
0
100
AcDbCircle
10
-72.249999999999972
20
-22.499999999999702
30
0
40
11.500000000000002
0
CIRCLE
5
118
100
AcDbEntity
8
0
100
AcDbCircle
10
-78.985192090807189
20
84.411152544811102
30
0
40
1.7779999999999916
0
CIRCLE
5
119
100
AcDbEntity
8
0
100
AcDbCircle
10
-65.514807909203
20
70.940768363207212
30
0
40
1.7779999999999896
0
LWPOLYLINE
5
120
100
AcDbEntity
8
0
100
AcDbPolyline
90
32
70
1
43
0.0
10
-49.650000000000112
20
-25.333333333333385
10
-52.750000000000114
20
-25.333333333333385
10
-52.750000000000099
20
-13.666666666666705
10
-49.650000000000105
20
-13.666666666666693
10
-49.650000000000105
20
-1.9999999999999909
10
-40.909090909090899
20
-1.999999999999994
10
-40.909090909090899
20
-5.1000000000000734
10
-31.818181818181802
20
-5.100000000000076
10
-31.818181818181802
20
-2.0000000000000022
10
-22.727272727272801
20
-2.0000000000000009
10
-22.727272727272801
20
-5.1000000000000796
10
-13.636363636363704
20
-5.1000000000000831
10
-13.636363636363704
20
-2.0000000000000471
10
-4.5454545454545379
20
-2.0000000000000067
10
-4.545454545454545
20
-5.1000000000000849
10
4.5454545454545467
20
-5.1000000000000911
10
4.5454545454545512
20
-2.0000000000000298
10
13.636363636363704
20
-2.0000000000000129
10
13.636363636363704
20
-5.1000000000000938
10
22.727272727272801
20
-5.1000000000000956
10
22.727272727272801
20
-2.0000000000000169
10
31.818181818181802
20
-2.0000000000000195
10
31.818181818181802
20
-5.1000000000000991
10
40.909090909090899
20
-5.1000000000001027
10
40.909090909090899
20
-2.0000000000000231
10
49.650000000000105
20
-2.0000000000000262
10
49.650000000000105
20
-13.666666666666726
10
52.750000000000099
20
-13.666666666666728
10
52.750000000000092
20
-25.333333333333439
10
49.650000000000098
20
-25.333333333333421
10
49.650000000000098
20
-37.000000000000135
10
-49.650000000000112
20
-37.000000000000099
0
LWPOLYLINE
5
121
100
AcDbEntity
8
0
100
AcDbPolyline
90
24
70
1
43
0.0
10
57.850000000000207
20
78.857142857143117
10
57.850000000000236
20
96.900000000000333
10
54.75
20
96.900000000000333
10
54.750000000000057
20
99.999999999999972
10
66.416666666666856
20
100
10
66.416666666666842
20
96.90000000000029
10
78.083333333333456
20
96.90000000000029
10
78.083333333333442
20
99.999999999999972
10
89.750000000000057
20
99.999999999999972
10
89.750000000000014
20
-39.999999999999751
10
54.750000000000007
20
-39.999999999999694
10
54.75
20
3.100000000000009
10
57.850000000000094
20
3.100000000000005
10
57.850000000000115
20
18.142857142857199
10
54.750000000000007
20
18.142857142857203
10
54.750000000000043
20
30.88571428571441
10
57.850000000000136
20
30.88571428571441
10
57.850000000000151
20
43.628571428571597
10
54.750000000000007
20
43.628571428571604
10
54.750000000000128
20
56.371428571428808
10
57.850000000000172
20
56.371428571428808
10
57.850000000000186
20
69.114285714285899
10
54.750000000000149
20
69.114285714285913
10
54.750000000000099
20
78.857142857143117
0
CIRCLE
5
122
100
AcDbEntity
8
0
100
AcDbCircle
10
65.514807909203583
20
84.41115254481079
30
0
40
1.7779999999999916
0
CIRCLE
5
123
100
AcDbEntity
8
0
100
AcDbCircle
10
78.985192090807061
20
70.940768363207368
30
0
40
1.7779999999999916
0
LWPOLYLINE
5
124
100
AcDbEntity
8
0
100
AcDbPolyline
90
4
70
1
43
0.0
10
78.083333333333286
20
3.100000000000013
10
66.4166666666666
20
3.100000000000009
10
66.4166666666666
20
9.6543492632545716e-15
10
78.083333333333286
20
1.1102230246251565e-14
0
CIRCLE
5
125
100
AcDbEntity
8
0
100
AcDbCircle
10
85.249999999999986
20
-9.4999999999997193
30
0
40
1.69999999999999
0
CIRCLE
5
126
100
AcDbEntity
8
0
100
AcDbCircle
10
85.250000000000057
20
-35.499999999999751
30
0
40
1.69999999999999
0
CIRCLE
5
127
100
AcDbEntity
8
0
100
AcDbCircle
10
59.25
20
-35.499999999999716
30
0
40
1.69999999999999
0
CIRCLE
5
128
100
AcDbEntity
8
0
100
AcDbCircle
10
59.25
20
-9.4999999999997193
30
0
40
1.69999999999999
0
CIRCLE
5
129
100
AcDbEntity
8
0
100
AcDbCircle
10
72.249999999999957
20
-22.499999999999723
30
0
40
11.500000000000002
0
CIRCLE
5
130
100
AcDbEntity
8
0
100
AcDbCircle
10
78.985192090807701
20
84.411152544811074
30
0
40
1.7779999999999916
0
CIRCLE
5
131
100
AcDbEntity
8
0
100
AcDbCircle
10
65.514807909203469
20
70.940768363207198
30
0
40
1.7779999999999896
0
LWPOLYLINE
5
132
100
AcDbEntity
8
0
100
AcDbPolyline
90
28
70
1
43
0.0
10
-49.650000000000112
20
137.00000000000011
10
49.650000000000098
20
137.00000000000014
10
49.650000000000098
20
125.33333333333343
10
52.750000000000092
20
125.33333333333346
10
52.750000000000099
20
113.66666666666673
10
49.650000000000105
20
113.66666666666673
10
49.650000000000105
20
102.00000000000001
10
40.909090909090899
20
102.00000000000001
10
40.909090909090899
20
105.10000000000008
10
31.818181818181806
20
105.10000000000008
10
31.818181818181806
20
102
10
22.727272727272805
20
102
10
22.727272727272805
20
105.10000000000008
10
13.636363636363704
20
105.10000000000007
10
13.636363636363706
20
102
10
-13.636363636363702
20
102.00000000000003
10
-13.636363636363704
20
105.10000000000007
10
-22.727272727272798
20
105.10000000000007
10
-22.727272727272798
20
101.99999999999997
10
-31.818181818181799
20
101.99999999999997
10
-31.818181818181799
20
105.10000000000005
10
-40.909090909090899
20
105.10000000000005
10
-40.909090909090899
20
101.99999999999997
10
-49.650000000000105
20
101.99999999999997
10
-49.650000000000105
20
113.66666666666669
10
-52.750000000000099
20
113.66666666666671
10
-52.750000000000114
20
125.33333333333339
10
-49.650000000000112
20
125.33333333333339
0
CIRCLE
5
133
100
AcDbEntity
8
0
100
AcDbCircle
10
40.411152544811287
20
126.23519209080158
30
0
40
1.7779999999999916
0
CIRCLE
5
134
100
AcDbEntity
8
0
100
AcDbCircle
10
26.940768363209308
20
112.76480790919666
30
0
40
1.7779999999999916
0
CIRCLE
5
135
100
AcDbEntity
8
0
100
AcDbCircle
10
-26.940768363209308
20
112.76480790919663
30
0
40
1.7779999999999916
0
CIRCLE
5
136
100
AcDbEntity
8
0
100
AcDbCircle
10
-40.411152544811308
20
126.23519209080155
30
0
40
1.7779999999999916
0
CIRCLE
5
137
100
AcDbEntity
8
0
100
AcDbCircle
10
40.411152544812509
20
112.76480790919766
30
0
40
1.7779999999999896
0
CIRCLE
5
138
100
AcDbEntity
8
0
100
AcDbCircle
10
26.940768363207496
20
126.23519209080027
30
0
40
1.7779999999999916
0
CIRCLE
5
139
100
AcDbEntity
8
0
100
AcDbCircle
10
-40.411152544812509
20
112.76480790919763
30
0
40
1.7779999999999896
0
CIRCLE
5
140
100
AcDbEntity
8
0
100
AcDbCircle
10
-26.940768363207511
20
126.23519209080024
30
0
40
1.7779999999999916
0
ENDSEC
0
SECTION
2
OBJECTS
0
DICTIONARY
5
C
100
AcDbDictionary
3
ACAD_GROUP
350
D
3
ACAD_MLINESTYLE
350
17
0
DICTIONARY
5
D
100
AcDbDictionary
0
DICTIONARY
5
1A
330
C
100
AcDbDictionary
0
DICTIONARY
5
17
100
AcDbDictionary
0
ENDSEC
0
EOF
